<mxfile host="app.diagrams.net" modified="2021-10-25T17:19:27.421Z" agent="5.0 (Macintosh; Intel Mac OS X 10_15_7) AppleWebKit/537.36 (KHTML, like Gecko) Chrome/94.0.4606.81 Safari/537.36" etag="DcAH2LajIAuRzlBqWRQR" version="15.5.7" type="github" pages="2">
  <diagram id="5D9I7jnW4y39OOq3ERhe" name="Page-1">
    <mxGraphModel dx="2066" dy="1048" grid="1" gridSize="10" guides="1" tooltips="1" connect="1" arrows="1" fold="1" page="1" pageScale="1" pageWidth="850" pageHeight="1100" math="0" shadow="0">
      <root>
        <mxCell id="0" />
        <mxCell id="1" parent="0" />
        <mxCell id="X1SIhQ0vAOC2hnr9ErnE-9" value="" style="rounded=0;whiteSpace=wrap;html=1;fillColor=#dae8fc;strokeColor=#6c8ebf;" vertex="1" parent="1">
          <mxGeometry x="210" y="110" width="350" height="360" as="geometry" />
        </mxCell>
        <mxCell id="X1SIhQ0vAOC2hnr9ErnE-14" style="edgeStyle=orthogonalEdgeStyle;rounded=0;orthogonalLoop=1;jettySize=auto;html=1;exitX=0.5;exitY=1;exitDx=0;exitDy=0;entryX=0.5;entryY=0;entryDx=0;entryDy=0;fontSize=13;fontColor=#000000;" edge="1" parent="1" source="X1SIhQ0vAOC2hnr9ErnE-4" target="X1SIhQ0vAOC2hnr9ErnE-6">
          <mxGeometry relative="1" as="geometry" />
        </mxCell>
        <mxCell id="X1SIhQ0vAOC2hnr9ErnE-19" style="edgeStyle=orthogonalEdgeStyle;rounded=0;orthogonalLoop=1;jettySize=auto;html=1;exitX=1;exitY=0.75;exitDx=0;exitDy=0;entryX=1;entryY=0.5;entryDx=0;entryDy=0;fontSize=13;fontColor=#000000;endArrow=classic;endFill=1;" edge="1" parent="1" source="X1SIhQ0vAOC2hnr9ErnE-4" target="X1SIhQ0vAOC2hnr9ErnE-7">
          <mxGeometry relative="1" as="geometry">
            <Array as="points">
              <mxPoint x="510" y="180" />
              <mxPoint x="510" y="370" />
            </Array>
          </mxGeometry>
        </mxCell>
        <mxCell id="X1SIhQ0vAOC2hnr9ErnE-26" style="edgeStyle=orthogonalEdgeStyle;rounded=0;orthogonalLoop=1;jettySize=auto;html=1;exitX=1;exitY=0.25;exitDx=0;exitDy=0;fontSize=13;fontColor=#000000;endArrow=classic;endFill=1;" edge="1" parent="1" source="X1SIhQ0vAOC2hnr9ErnE-4" target="X1SIhQ0vAOC2hnr9ErnE-11">
          <mxGeometry relative="1" as="geometry" />
        </mxCell>
        <mxCell id="X1SIhQ0vAOC2hnr9ErnE-27" style="edgeStyle=orthogonalEdgeStyle;rounded=0;orthogonalLoop=1;jettySize=auto;html=1;fontSize=13;fontColor=#000000;endArrow=classic;endFill=1;entryX=0.5;entryY=0;entryDx=0;entryDy=0;dashed=1;" edge="1" parent="1" target="X1SIhQ0vAOC2hnr9ErnE-4">
          <mxGeometry relative="1" as="geometry">
            <mxPoint x="530" y="50" as="targetPoint" />
            <mxPoint x="425" y="60" as="sourcePoint" />
            <Array as="points">
              <mxPoint x="425" y="60" />
            </Array>
          </mxGeometry>
        </mxCell>
        <mxCell id="X1SIhQ0vAOC2hnr9ErnE-4" value="Duke" style="rounded=1;whiteSpace=wrap;html=1;fillColor=#0050ef;strokeColor=#001DBC;fontColor=#ffffff;" vertex="1" parent="1">
          <mxGeometry x="375" y="150" width="100" height="40" as="geometry" />
        </mxCell>
        <mxCell id="X1SIhQ0vAOC2hnr9ErnE-15" style="edgeStyle=orthogonalEdgeStyle;rounded=0;orthogonalLoop=1;jettySize=auto;html=1;exitX=0.5;exitY=1;exitDx=0;exitDy=0;entryX=0.5;entryY=0;entryDx=0;entryDy=0;fontSize=13;fontColor=#000000;dashed=1;" edge="1" parent="1" source="X1SIhQ0vAOC2hnr9ErnE-6" target="X1SIhQ0vAOC2hnr9ErnE-7">
          <mxGeometry relative="1" as="geometry" />
        </mxCell>
        <mxCell id="X1SIhQ0vAOC2hnr9ErnE-6" value="Parser" style="rounded=1;whiteSpace=wrap;html=1;fillColor=#0050ef;strokeColor=#001DBC;fontColor=#ffffff;" vertex="1" parent="1">
          <mxGeometry x="375" y="250" width="100" height="40" as="geometry" />
        </mxCell>
        <mxCell id="X1SIhQ0vAOC2hnr9ErnE-13" style="edgeStyle=orthogonalEdgeStyle;rounded=0;orthogonalLoop=1;jettySize=auto;html=1;exitX=0.5;exitY=1;exitDx=0;exitDy=0;entryX=0;entryY=0.5;entryDx=0;entryDy=0;fontSize=13;fontColor=#000000;dashed=1;" edge="1" parent="1" source="X1SIhQ0vAOC2hnr9ErnE-7" target="X1SIhQ0vAOC2hnr9ErnE-10">
          <mxGeometry relative="1" as="geometry">
            <Array as="points">
              <mxPoint x="425" y="430" />
            </Array>
          </mxGeometry>
        </mxCell>
        <mxCell id="X1SIhQ0vAOC2hnr9ErnE-18" style="edgeStyle=orthogonalEdgeStyle;rounded=0;orthogonalLoop=1;jettySize=auto;html=1;exitX=0;exitY=0.5;exitDx=0;exitDy=0;fontSize=13;fontColor=#000000;endArrow=block;endFill=0;" edge="1" parent="1" source="X1SIhQ0vAOC2hnr9ErnE-7" target="X1SIhQ0vAOC2hnr9ErnE-17">
          <mxGeometry relative="1" as="geometry" />
        </mxCell>
        <mxCell id="X1SIhQ0vAOC2hnr9ErnE-7" value="AbcCommand" style="rounded=1;whiteSpace=wrap;html=1;fillColor=#0050ef;strokeColor=#001DBC;fontColor=#ffffff;" vertex="1" parent="1">
          <mxGeometry x="375" y="350" width="100" height="40" as="geometry" />
        </mxCell>
        <mxCell id="X1SIhQ0vAOC2hnr9ErnE-10" value="" style="rounded=0;whiteSpace=wrap;html=1;fillColor=#60a917;fontColor=#ffffff;strokeColor=#2D7600;" vertex="1" parent="1">
          <mxGeometry x="600" y="400" width="120" height="60" as="geometry" />
        </mxCell>
        <mxCell id="X1SIhQ0vAOC2hnr9ErnE-11" value="&lt;b&gt;&lt;font style=&quot;font-size: 13px&quot;&gt;Manager&lt;/font&gt;&lt;/b&gt;" style="text;html=1;align=center;verticalAlign=middle;resizable=0;points=[];autosize=1;strokeColor=none;fillColor=none;" vertex="1" parent="1">
          <mxGeometry x="625" y="400" width="70" height="20" as="geometry" />
        </mxCell>
        <mxCell id="X1SIhQ0vAOC2hnr9ErnE-12" value="&lt;font color=&quot;#000000&quot; size=&quot;1&quot;&gt;&lt;b style=&quot;font-size: 13px&quot;&gt;Logical&lt;/b&gt;&lt;/font&gt;" style="text;html=1;align=center;verticalAlign=middle;resizable=0;points=[];autosize=1;strokeColor=none;fillColor=none;fontColor=#FFFFFF;" vertex="1" parent="1">
          <mxGeometry x="355" y="110" width="60" height="20" as="geometry" />
        </mxCell>
        <mxCell id="X1SIhQ0vAOC2hnr9ErnE-17" value="Command" style="rounded=1;whiteSpace=wrap;html=1;fillColor=#0050ef;strokeColor=#001DBC;fontColor=#ffffff;" vertex="1" parent="1">
          <mxGeometry x="240" y="250" width="100" height="40" as="geometry" />
        </mxCell>
        <mxCell id="X1SIhQ0vAOC2hnr9ErnE-20" value="executes" style="text;html=1;align=center;verticalAlign=middle;resizable=0;points=[];autosize=1;strokeColor=none;fillColor=none;fontSize=13;fontColor=#000000;rotation=90;" vertex="1" parent="1">
          <mxGeometry x="490" y="260" width="70" height="20" as="geometry" />
        </mxCell>
        <mxCell id="X1SIhQ0vAOC2hnr9ErnE-21" value="" style="verticalLabelPosition=bottom;verticalAlign=top;html=1;shape=mxgraph.basic.acute_triangle;dx=0.5;fontSize=13;fontColor=#000000;rotation=-180;fillColor=#000000;" vertex="1" parent="1">
          <mxGeometry x="518" y="300" width="10" height="10" as="geometry" />
        </mxCell>
        <mxCell id="X1SIhQ0vAOC2hnr9ErnE-24" value="instantiate" style="text;html=1;align=center;verticalAlign=middle;resizable=0;points=[];autosize=1;strokeColor=none;fillColor=none;fontSize=13;fontColor=#000000;" vertex="1" parent="1">
          <mxGeometry x="350" y="300" width="70" height="20" as="geometry" />
        </mxCell>
        <mxCell id="X1SIhQ0vAOC2hnr9ErnE-25" value="" style="verticalLabelPosition=bottom;verticalAlign=top;html=1;shape=mxgraph.basic.acute_triangle;dx=0.5;fontSize=13;fontColor=#000000;rotation=-180;fillColor=#000000;" vertex="1" parent="1">
          <mxGeometry x="405" y="320" width="10" height="10" as="geometry" />
        </mxCell>
      </root>
    </mxGraphModel>
  </diagram>
  <diagram id="tXf79RCRjRvDvKqbIrdy" name="Page-2">
    <mxGraphModel dx="2066" dy="1048" grid="1" gridSize="10" guides="1" tooltips="1" connect="1" arrows="1" fold="1" page="1" pageScale="1" pageWidth="850" pageHeight="1100" math="0" shadow="0">
      <root>
        <mxCell id="6EorLUXTnPa7QQpFVstk-0" />
        <mxCell id="6EorLUXTnPa7QQpFVstk-1" parent="6EorLUXTnPa7QQpFVstk-0" />
        <mxCell id="6EorLUXTnPa7QQpFVstk-2" value="" style="rounded=0;whiteSpace=wrap;html=1;fillColor=#dae8fc;strokeColor=#6c8ebf;" vertex="1" parent="6EorLUXTnPa7QQpFVstk-1">
          <mxGeometry x="210" y="110" width="350" height="360" as="geometry" />
        </mxCell>
        <mxCell id="6EorLUXTnPa7QQpFVstk-3" style="edgeStyle=orthogonalEdgeStyle;rounded=0;orthogonalLoop=1;jettySize=auto;html=1;exitX=0.5;exitY=1;exitDx=0;exitDy=0;entryX=0.5;entryY=0;entryDx=0;entryDy=0;fontSize=13;fontColor=#000000;" edge="1" parent="6EorLUXTnPa7QQpFVstk-1" source="6EorLUXTnPa7QQpFVstk-7" target="6EorLUXTnPa7QQpFVstk-9">
          <mxGeometry relative="1" as="geometry" />
        </mxCell>
        <mxCell id="6EorLUXTnPa7QQpFVstk-4" style="edgeStyle=orthogonalEdgeStyle;rounded=0;orthogonalLoop=1;jettySize=auto;html=1;exitX=1;exitY=0.75;exitDx=0;exitDy=0;entryX=1;entryY=0.5;entryDx=0;entryDy=0;fontSize=13;fontColor=#000000;endArrow=classic;endFill=1;" edge="1" parent="6EorLUXTnPa7QQpFVstk-1" source="6EorLUXTnPa7QQpFVstk-7" target="6EorLUXTnPa7QQpFVstk-12">
          <mxGeometry relative="1" as="geometry">
            <Array as="points">
              <mxPoint x="510" y="180" />
              <mxPoint x="510" y="370" />
            </Array>
          </mxGeometry>
        </mxCell>
        <mxCell id="6EorLUXTnPa7QQpFVstk-5" style="edgeStyle=orthogonalEdgeStyle;rounded=0;orthogonalLoop=1;jettySize=auto;html=1;exitX=1;exitY=0.25;exitDx=0;exitDy=0;fontSize=13;fontColor=#000000;endArrow=classic;endFill=1;" edge="1" parent="6EorLUXTnPa7QQpFVstk-1" source="6EorLUXTnPa7QQpFVstk-7" target="6EorLUXTnPa7QQpFVstk-14">
          <mxGeometry relative="1" as="geometry" />
        </mxCell>
        <mxCell id="6EorLUXTnPa7QQpFVstk-6" style="edgeStyle=orthogonalEdgeStyle;rounded=0;orthogonalLoop=1;jettySize=auto;html=1;fontSize=13;fontColor=#000000;endArrow=classic;endFill=1;entryX=0.5;entryY=0;entryDx=0;entryDy=0;dashed=1;" edge="1" parent="6EorLUXTnPa7QQpFVstk-1" target="6EorLUXTnPa7QQpFVstk-7">
          <mxGeometry relative="1" as="geometry">
            <mxPoint x="530" y="50" as="targetPoint" />
            <mxPoint x="425" y="60" as="sourcePoint" />
            <Array as="points">
              <mxPoint x="425" y="60" />
            </Array>
          </mxGeometry>
        </mxCell>
        <mxCell id="6EorLUXTnPa7QQpFVstk-7" value="Duke" style="rounded=1;whiteSpace=wrap;html=1;fillColor=#0050ef;strokeColor=#001DBC;fontColor=#ffffff;" vertex="1" parent="6EorLUXTnPa7QQpFVstk-1">
          <mxGeometry x="375" y="150" width="100" height="40" as="geometry" />
        </mxCell>
        <mxCell id="6EorLUXTnPa7QQpFVstk-8" style="edgeStyle=orthogonalEdgeStyle;rounded=0;orthogonalLoop=1;jettySize=auto;html=1;exitX=0.5;exitY=1;exitDx=0;exitDy=0;entryX=0.5;entryY=0;entryDx=0;entryDy=0;fontSize=13;fontColor=#000000;dashed=1;" edge="1" parent="6EorLUXTnPa7QQpFVstk-1" source="6EorLUXTnPa7QQpFVstk-9" target="6EorLUXTnPa7QQpFVstk-12">
          <mxGeometry relative="1" as="geometry" />
        </mxCell>
        <mxCell id="6EorLUXTnPa7QQpFVstk-9" value="Parser" style="rounded=1;whiteSpace=wrap;html=1;fillColor=#0050ef;strokeColor=#001DBC;fontColor=#ffffff;" vertex="1" parent="6EorLUXTnPa7QQpFVstk-1">
          <mxGeometry x="375" y="250" width="100" height="40" as="geometry" />
        </mxCell>
        <mxCell id="6EorLUXTnPa7QQpFVstk-10" style="edgeStyle=orthogonalEdgeStyle;rounded=0;orthogonalLoop=1;jettySize=auto;html=1;exitX=0.5;exitY=1;exitDx=0;exitDy=0;entryX=0;entryY=0.5;entryDx=0;entryDy=0;fontSize=13;fontColor=#000000;dashed=1;" edge="1" parent="6EorLUXTnPa7QQpFVstk-1" source="6EorLUXTnPa7QQpFVstk-12" target="6EorLUXTnPa7QQpFVstk-13">
          <mxGeometry relative="1" as="geometry">
            <Array as="points">
              <mxPoint x="425" y="430" />
            </Array>
          </mxGeometry>
        </mxCell>
        <mxCell id="6EorLUXTnPa7QQpFVstk-11" style="edgeStyle=orthogonalEdgeStyle;rounded=0;orthogonalLoop=1;jettySize=auto;html=1;exitX=0;exitY=0.5;exitDx=0;exitDy=0;fontSize=13;fontColor=#000000;endArrow=block;endFill=0;" edge="1" parent="6EorLUXTnPa7QQpFVstk-1" source="6EorLUXTnPa7QQpFVstk-12" target="6EorLUXTnPa7QQpFVstk-16">
          <mxGeometry relative="1" as="geometry" />
        </mxCell>
        <mxCell id="6EorLUXTnPa7QQpFVstk-12" value="AbcCommand" style="rounded=1;whiteSpace=wrap;html=1;fillColor=#0050ef;strokeColor=#001DBC;fontColor=#ffffff;" vertex="1" parent="6EorLUXTnPa7QQpFVstk-1">
          <mxGeometry x="375" y="350" width="100" height="40" as="geometry" />
        </mxCell>
        <mxCell id="6EorLUXTnPa7QQpFVstk-13" value="" style="rounded=0;whiteSpace=wrap;html=1;fillColor=#60a917;fontColor=#ffffff;strokeColor=#2D7600;" vertex="1" parent="6EorLUXTnPa7QQpFVstk-1">
          <mxGeometry x="600" y="400" width="120" height="60" as="geometry" />
        </mxCell>
        <mxCell id="6EorLUXTnPa7QQpFVstk-14" value="&lt;b&gt;&lt;font style=&quot;font-size: 13px&quot;&gt;Manager&lt;/font&gt;&lt;/b&gt;" style="text;html=1;align=center;verticalAlign=middle;resizable=0;points=[];autosize=1;strokeColor=none;fillColor=none;" vertex="1" parent="6EorLUXTnPa7QQpFVstk-1">
          <mxGeometry x="625" y="400" width="70" height="20" as="geometry" />
        </mxCell>
        <mxCell id="6EorLUXTnPa7QQpFVstk-15" value="&lt;font color=&quot;#000000&quot; size=&quot;1&quot;&gt;&lt;b style=&quot;font-size: 13px&quot;&gt;Logical&lt;/b&gt;&lt;/font&gt;" style="text;html=1;align=center;verticalAlign=middle;resizable=0;points=[];autosize=1;strokeColor=none;fillColor=none;fontColor=#FFFFFF;" vertex="1" parent="6EorLUXTnPa7QQpFVstk-1">
          <mxGeometry x="355" y="110" width="60" height="20" as="geometry" />
        </mxCell>
        <mxCell id="6EorLUXTnPa7QQpFVstk-16" value="Command" style="rounded=1;whiteSpace=wrap;html=1;fillColor=#0050ef;strokeColor=#001DBC;fontColor=#ffffff;" vertex="1" parent="6EorLUXTnPa7QQpFVstk-1">
          <mxGeometry x="240" y="250" width="100" height="40" as="geometry" />
        </mxCell>
        <mxCell id="6EorLUXTnPa7QQpFVstk-17" value="executes" style="text;html=1;align=center;verticalAlign=middle;resizable=0;points=[];autosize=1;strokeColor=none;fillColor=none;fontSize=13;fontColor=#000000;rotation=90;" vertex="1" parent="6EorLUXTnPa7QQpFVstk-1">
          <mxGeometry x="490" y="260" width="70" height="20" as="geometry" />
        </mxCell>
        <mxCell id="6EorLUXTnPa7QQpFVstk-18" value="" style="verticalLabelPosition=bottom;verticalAlign=top;html=1;shape=mxgraph.basic.acute_triangle;dx=0.5;fontSize=13;fontColor=#000000;rotation=-180;fillColor=#000000;" vertex="1" parent="6EorLUXTnPa7QQpFVstk-1">
          <mxGeometry x="518" y="300" width="10" height="10" as="geometry" />
        </mxCell>
        <mxCell id="6EorLUXTnPa7QQpFVstk-19" value="instantiate" style="text;html=1;align=center;verticalAlign=middle;resizable=0;points=[];autosize=1;strokeColor=none;fillColor=none;fontSize=13;fontColor=#000000;" vertex="1" parent="6EorLUXTnPa7QQpFVstk-1">
          <mxGeometry x="350" y="300" width="70" height="20" as="geometry" />
        </mxCell>
        <mxCell id="6EorLUXTnPa7QQpFVstk-20" value="" style="verticalLabelPosition=bottom;verticalAlign=top;html=1;shape=mxgraph.basic.acute_triangle;dx=0.5;fontSize=13;fontColor=#000000;rotation=-180;fillColor=#000000;" vertex="1" parent="6EorLUXTnPa7QQpFVstk-1">
          <mxGeometry x="405" y="320" width="10" height="10" as="geometry" />
        </mxCell>
      </root>
    </mxGraphModel>
  </diagram>
</mxfile>
